<svg width="20" height="20" viewBox="0 0 20 20" fill="none" xmlns="http://www.w3.org/2000/svg">
<g clip-path="url(#clip0_3291_2)">
<path d="M18.7742 4.3829C18.518 4.766 18.2195 5.1891 17.8932 5.6328H18.7498V8.7569H15.2874C14.8622 9.2031 14.4372 9.6137 14.0161 10.0068H18.7498V11.54L19.0428 12.0499L19.9998 13.7159V4.3829H18.7742Z" fill="white"/>
<path d="M1.2508 18.1323V10.0068H5.8521C6.0338 9.6935 6.2928 9.268 6.625 8.7569H1.2508V5.6328H8.9259C9.2666 5.2214 9.6317 4.8038 10.0198 4.3829H0.0008V8.7569L0 10.0068L0.0008 19.3822H12.0952L11.3772 18.1323H1.2508Z" fill="white"/>
<path d="M13.9373 12.8929L13.2788 14.0327H17.2283L19.2026 17.4526L19.8606 16.3127H19.861L17.8866 12.8929H13.9373Z" fill="white"/>
<path d="M12.621 15.1726L13.2795 16.3127H15.9118L17.2284 18.5928H14.5954L12.621 15.1726L11.9629 16.3127L13.9374 19.733H17.8864L18.5447 18.5928L16.5704 15.1726H12.621Z" fill="white"/>
<path d="M6.80866 10.8731C6.68686 10.8507 6.56386 10.8341 6.43956 10.8341C5.96936 10.8341 5.49246 10.9945 5.09786 11.3225C4.72716 11.6305 4.64936 12.2456 4.64616 12.687C4.64056 13.4574 4.27676 14.1937 3.62296 14.6013C3.56046 14.6403 3.52246 14.6597 3.52246 14.6597C3.52246 14.6597 4.57546 15.1931 5.77996 15.1931C6.44406 15.1931 7.15426 15.0311 7.75946 14.5279C8.33086 14.0529 8.58286 13.3447 8.49866 12.6716C8.57316 12.6412 8.64966 12.6156 8.71846 12.5718C9.64536 11.9808 12.0517 10.3426 14.3882 7.889C16.7262 5.4339 18.2447 2.9502 18.789 1.9963C19.0251 1.5827 19.0243 1.0713 18.7867 0.6621C18.5496 0.2537 18.1089 0 17.6367 0C17.3811 0 17.1312 0.0732 16.9142 0.2118C15.9884 0.8019 13.5815 2.4402 11.2441 4.8948C8.90716 7.3488 7.38866 9.832 6.84426 10.7859C6.82836 10.8136 6.82226 10.8446 6.80866 10.8731ZM12.1492 5.7568C14.4267 3.3651 16.7974 1.7684 17.5864 1.2655C17.6033 1.2547 17.6205 1.2499 17.6365 1.2499C17.6952 1.2499 17.7395 1.3132 17.7032 1.3767C17.2395 2.1894 15.7604 4.6352 13.4829 7.0269C12.8838 7.6559 12.2801 8.2262 11.6987 8.7398L10.5343 7.611C11.0167 7.0089 11.554 6.3819 12.1492 5.7568ZM7.92976 11.4055C8.20326 10.9263 8.83686 9.8756 9.76896 8.61L10.74 9.5513C9.52576 10.5399 8.51126 11.2216 8.04716 11.5174C8.03016 11.5282 8.01286 11.533 7.99676 11.533C7.93776 11.5329 7.89326 11.4694 7.92976 11.4055ZM7.10396 12.4543C7.37316 12.7782 7.30886 13.2772 6.96056 13.5666C6.65576 13.8199 6.26966 13.9431 5.77996 13.9431C5.74406 13.9431 5.70836 13.9424 5.67266 13.9412C5.81546 13.5523 5.89276 13.132 5.89596 12.696C5.89776 12.4561 5.93006 12.3078 5.95236 12.241C6.13316 12.1125 6.31436 12.084 6.43946 12.084C6.57266 12.084 6.82446 12.1181 7.01386 12.3459L7.10396 12.4543Z" fill="white"/>
</g>
<defs>
<clipPath id="clip0_3291_2">
<rect width="20" height="20" fill="white"/>
</clipPath>
</defs>
</svg>
