<svg width="24" height="24" viewBox="0 0 24 24" fill="none" xmlns="http://www.w3.org/2000/svg">
<g clip-path="url(#clip0_8802_1793)">
<path d="M6 9.7345H18V11.2345H6V9.7345ZM6 14.2422H14.3533L14.577 13.8528L15.2186 12.7422H6V14.2422ZM6 17.2422H12.6299L13.4916 15.7422H6V17.2422ZM7.5 5.24219V2.24219H0V5.24219V21.7422H12.8507L11.989 20.2422H1.5V6.74219H22.5V13.7164L22.5784 13.8528L24 16.3275V5.24219H7.5Z" fill="url(#paint0_linear_8802_1793)"/>
<path d="M15.9778 19.2L17.2778 21.4H19.7778L18.5778 19.2H15.9778Z" fill="#FF808B"/>
<path d="M21.2777 14.5999H15.8777L13.1777 19.2999L15.8777 23.9999H21.2777L23.9777 19.2999L21.2777 14.5999ZM20.4777 22.4999H16.6777L14.7777 19.1999L15.3777 18.0999H19.1777L21.0777 21.3999L20.4777 22.4999ZM21.7777 20.2999L19.8777 16.9999H15.9777L16.5777 15.8999H20.3777L22.2777 19.1999L21.7777 20.2999Z" fill="#FF808B"/>
</g>
<defs>
<linearGradient id="paint0_linear_8802_1793" x1="12" y1="2.24219" x2="12" y2="21.7422" gradientUnits="userSpaceOnUse">
<stop stop-color="#2E54EB"/>
<stop offset="1" stop-color="#66C6D2"/>
</linearGradient>
<clipPath id="clip0_8802_1793">
<rect width="24" height="24" fill="white"/>
</clipPath>
</defs>
</svg>
